PathFileType	4	(X/Y/Z)	C:\Users\WrightLab\Desktop\Jo\P2_Trial28.trc
DataRate	CameraRate	NumFrames	NumMarkers	Units	OrigDataRate	OrigDataStartFrame	OrigNumFrames
100.00	100.00	       14	19	mm	100.00	237	       472
Frame#	Time	Headset_Front			Headset_Back			Headset_Left			Headset_Right			Left_Shoulder			Right_Shoulder			Sternum			C7			Left Elbow			Right Elbow			Left Wrist			Right Wrist			Left ASIS			Right ASIS			S2			Left Knee			Right Knee			Left Ankle			Right Ankle			
		X1	Y1	Z1	X2	Y2	Z2	X3	Y3	Z3	X4	Y4	Z4	X5	Y5	Z5	X6	Y6	Z6	X7	Y7	Z7	X8	Y8	Z8	X9	Y9	Z9	X10	Y10	Z10	X11	Y11	Z11	X12	Y12	Z12	X13	Y13	Z13	X14	Y14	Z14	X15	Y15	Z15	X16	Y16	Z16	X17	Y17	Z17	X18	Y18	Z18	X19	Y19	Z19	

237	2.360	-222.51299	1418.91748	585.47589	-296.42255	1659.48206	409.30060	-169.20155	1542.46643	423.78937	-341.65491	1509.94946	575.28223	-201.89302	1425.03528	288.13931	-457.38599	1406.80798	474.79047	-280.83398	1299.84802	440.89960	-406.58908	1399.03149	303.39267	-103.42603	1088.41455	183.76291	-518.43689	1100.36938	581.79846	-70.25668	852.51672	145.83472	-520.60492	951.97058	766.18921	-196.51871	1023.57660	410.60565	-310.17801	993.78204	482.37943	-379.11954	913.28821	227.77489	-57.14847	467.07245	391.61044	-491.53162	515.66321	387.93768	-33.78020	107.96315	358.46838	-656.66602	186.06178	263.15997	
238	2.370	-215.73784	1419.85486	593.90021	-289.57550	1661.36340	418.70062	-162.31316	1544.66870	432.94290	-334.80011	1511.24646	584.04352	-195.32188	1426.85742	296.87955	-450.01398	1408.44885	483.26093	-273.05722	1302.06873	450.09274	-399.56284	1400.84204	312.26169	-90.64528	1090.48987	196.72768	-510.86655	1102.39819	591.05145	-51.65343	854.59131	162.57497	-513.74854	950.09412	772.08563	-188.56387	1025.93347	420.01074	-303.02930	997.47253	492.96814	-370.72220	914.31372	237.09671	-50.46862	465.03540	394.59952	-467.87595	513.74921	404.19431	-34.26052	107.06925	359.16107	-636.44714	198.65485	278.72870	
239	2.380	-209.09624	1421.98157	603.24854	-282.59781	1663.35620	428.20703	-155.71722	1546.39941	441.99686	-327.96127	1513.14587	593.20953	-187.94292	1428.93848	306.12949	-443.47214	1410.72742	492.04971	-265.30182	1304.20044	459.11630	-392.46127	1402.84546	321.28317	-78.42866	1093.04102	209.00253	-504.26410	1104.41882	599.33948	-33.92537	857.84833	180.39766	-506.01404	946.99554	778.31012	-183.13382	1028.03259	429.98669	-297.09903	999.41510	500.83240	-362.14984	915.95227	246.07286	-44.20003	464.44070	397.08832	-444.56021	511.02914	421.07156	-35.04911	107.06239	359.88263	-615.45135	209.54021	294.78641	
240	2.390	-202.74182	1423.48486	611.51227	-276.37552	1665.59143	437.99994	-148.81056	1548.24988	456.19858	-321.76077	1514.44604	601.98627	-181.13931	1430.92383	314.60638	-437.26108	1413.49512	501.79501	-257.79102	1306.97339	468.60812	-385.87598	1405.19873	329.44638	-66.44948	1095.90137	220.90939	-498.28271	1106.72412	607.60382	-17.16064	861.22668	198.42958	-498.21237	944.20654	783.73254	-175.97441	1031.02954	440.43982	-291.05319	1002.36304	511.06018	-353.37271	917.73688	254.13356	-38.72691	464.80762	399.78793	-420.97110	507.46552	437.54309	-35.48511	106.93298	362.25189	-594.45996	220.57666	311.28223	
241	2.400	-196.17769	1425.49365	620.71246	-270.02908	1668.08728	447.47040	-142.86783	1550.82141	459.70798	-315.82187	1516.23657	611.42609	-174.40674	1433.29663	323.04965	-430.40192	1415.68469	509.13910	-251.76874	1309.38855	478.17249	-378.76425	1407.46008	338.11188	-54.60739	1099.18408	233.15175	-492.99081	1109.81421	615.99628	0.66716	865.13898	218.38129	-491.88812	941.96490	788.54633	-169.13365	1033.18372	450.79132	-284.35513	1003.70374	521.30554	-345.25400	919.98926	262.80008	-34.97304	465.60056	402.02390	-396.98349	503.59363	454.11914	-36.60132	107.14388	362.81238	-574.20111	229.66739	327.65121	
242	2.410	-190.71970	1426.36426	626.87579	-263.12497	1670.60767	457.66388	-136.42487	1553.64368	468.96616	-310.07141	1517.96155	619.83105	-167.42422	1436.14099	332.53857	-424.03607	1418.33081	517.66498	-245.30707	1311.56482	486.89859	-372.20029	1410.13367	346.49628	-43.30133	1102.83130	246.23038	-487.31412	1112.24658	624.04187	17.19143	870.66119	235.39180	-484.90662	939.98779	794.31836	-163.40247	1035.28455	459.06067	-277.91187	1006.16449	531.23248	-337.31644	923.32263	271.30557	-31.36898	466.40253	404.42136	-372.86188	500.05872	471.73154	-37.43413	107.40519	364.37009	-552.09418	238.47546	343.83762	
243	2.420	-184.51720	1428.86316	639.01837	-256.85095	1673.32202	467.78778	-129.76210	1556.32214	479.50177	-304.16983	1520.09741	629.20752	-160.89819	1439.12720	341.30023	-418.13098	1420.90295	525.62317	-240.00952	1314.42126	495.34286	-365.23041	1412.78821	354.85739	-31.29499	1106.39111	260.35291	-483.19315	1114.93164	631.16779	33.81370	875.89508	255.60631	-478.61261	937.22278	799.02942	-156.08441	1037.95972	469.24289	-271.82571	1008.91388	539.77753	-330.24600	926.35522	280.43506	-28.55503	466.56583	407.20847	-348.44812	499.03537	489.38364	-38.04846	108.59120	365.28531	-529.93536	247.55843	361.51361	
244	2.430	-179.72887	1429.69312	646.56219	-250.39496	1675.76477	477.85294	-123.66357	1558.84302	489.76602	-298.85251	1521.45837	637.86432	-154.35109	1442.32410	351.15112	-412.48505	1424.15442	534.43445	-234.47812	1316.95618	504.22989	-358.46613	1415.79395	363.27692	-20.82750	1111.20642	273.83334	-478.09668	1117.46277	638.56897	48.95724	882.74835	273.77725	-472.78870	934.72107	803.39606	-150.27101	1040.73584	479.27878	-266.55161	1011.86920	549.21362	-323.84467	930.08398	289.22964	-25.83960	467.17484	409.97437	-325.26187	502.24210	509.57367	-39.20557	109.01351	366.54880	-505.98111	253.27528	378.19867	
245	2.440	-174.44757	1431.24316	654.44458	-244.36215	1678.52222	487.91620	-117.83807	1561.19971	499.23920	-293.11371	1522.85486	646.56769	-147.50983	1444.80811	361.19424	-406.70160	1426.74109	542.56390	-228.50003	1319.09119	512.50604	-351.69394	1418.55762	371.65845	-9.82507	1115.54004	287.61871	-474.56027	1120.75183	645.35516	64.91586	889.47742	293.78802	-466.87714	932.67493	806.97736	-144.05055	1043.19751	488.57013	-259.77441	1015.40314	560.24713	-317.53476	933.20917	298.19592	-24.31536	467.39975	411.91190	-304.15836	509.67365	531.10632	-39.70156	109.25925	367.61417	-482.71805	259.49078	395.96616	
246	2.450	-168.16365	1433.21204	666.27783	-237.96536	1681.23230	497.90558	-111.63657	1564.38452	510.13071	-288.23505	1524.07336	655.46472	-141.88567	1446.94714	369.82144	-400.62216	1429.14270	549.79468	-223.76089	1322.54700	521.32257	-344.81915	1421.16003	380.15634	1.04609	1120.06763	301.78964	-470.42307	1123.44714	652.14307	78.48868	896.50891	311.91705	-461.20490	929.21436	809.90509	-137.42110	1045.90393	499.00565	-253.78122	1018.54675	568.61200	-311.44434	935.92584	307.81650	-23.10970	467.15024	413.86505	-284.60522	519.89563	553.23145	-39.73052	109.71999	369.04269	-458.61664	264.55750	414.70474	
247	2.460	-163.54649	1434.99695	675.96539	-232.30682	1683.33789	508.08624	-105.79348	1566.27539	518.92548	-283.02747	1525.73291	664.46497	-135.16034	1449.75732	380.80475	-395.28268	1431.78271	558.01892	-218.84032	1325.02185	529.78748	-338.30682	1423.64929	388.84106	12.19654	1124.76672	317.34232	-467.26077	1126.46875	658.55798	92.62403	903.59991	333.86002	-456.01901	926.64343	812.35516	-132.04601	1049.24854	508.39151	-247.28343	1021.31262	578.35059	-305.38345	938.57330	317.14499	-22.67619	467.50375	415.23056	-266.19489	530.36713	575.84894	-39.98898	110.46166	369.56259	-432.76532	268.80035	433.83490	
248	2.470	-159.15575	1435.72473	682.74359	-226.88219	1685.44678	517.83533	-99.90602	1568.46899	530.05499	-278.27896	1526.99365	673.37195	-128.85413	1452.21008	391.22449	-389.99045	1434.53748	565.85010	-213.08920	1327.74622	538.30286	-331.48715	1425.90784	397.09421	22.50313	1129.69104	330.79214	-463.10318	1128.49731	664.60040	106.09486	910.76050	353.25455	-451.06595	924.59338	813.94855	-125.83054	1052.17700	519.20654	-242.04933	1024.79309	587.39221	-299.41617	940.87421	326.75925	-22.21444	469.09201	416.82080	-247.47162	539.58893	597.80298	-39.85600	111.48739	370.79504	-407.33228	272.09796	453.37784	
249	2.480	-153.76039	1438.67859	694.80096	-221.53554	1687.18372	528.14349	-94.44711	1571.09558	539.67059	-273.31635	1528.74866	682.72852	-122.41026	1454.46960	401.37149	-384.62228	1436.79761	574.22363	-208.15790	1329.88940	547.77734	-324.99625	1428.06409	405.81842	32.76425	1134.27991	345.11121	-460.17557	1129.83508	670.68207	119.79798	918.08899	372.79572	-446.85538	922.01929	815.34583	-120.41609	1055.63171	528.91254	-237.26306	1027.56482	596.12671	-293.51508	943.00793	336.48380	-21.84208	470.50269	417.37170	-232.12070	547.42926	616.92139	-41.86700	112.53909	371.77420	-382.09863	275.17596	472.87277	
250	2.490	-149.12753	1439.55542	704.66565	-215.24348	1688.65515	537.87976	-88.93119	1572.57336	551.02881	-268.35901	1529.74036	692.17639	-116.12481	1458.43579	411.15247	-379.51007	1439.22559	583.11298	-203.27786	1332.02966	557.44800	-318.65128	1429.98987	414.70447	42.51723	1138.35229	359.18942	-455.61832	1130.80566	676.37744	132.91438	925.49969	392.88406	-443.80460	919.28735	815.82574	-114.02003	1058.62476	538.95685	-230.99567	1030.96924	607.05328	-287.82062	945.18903	345.80161	-21.99499	471.83389	417.42401	-221.36035	553.69977	631.51709	-41.99856	114.21608	373.26163	-353.27878	277.52618	491.58746	
